<svg t="1781243098778" class="icon" viewBox="0 0 1536 1024" version="1.1" xmlns="http://www.w3.org/2000/svg" p-id="23259" width="81" height="81">
<path d="M0 0v1024h1536V0H0z" fill="#FFFFFF" p-id="23260"></path>
<path d="M476.16 481.28v220.16c0 29.53728-7.5264 71.22432 9.69728 96.9984C515.47136 842.76736 609.1008 824.32 655.36 824.32c18.03264 0 48.79872 5.69856 60.52352-11.86816C726.33344 796.78976 721.92 770.47808 721.92 752.64v-143.36c17.44896 0 44.60032-4.8896 59.81184 5.26336 15.6416 10.43456 11.86304 34.92864 11.86816 51.05664l0.00512 107.52c0.07168 13.80864-1.64864 32.19968 8.91392 42.99264C821.26848 835.26144 881.29536 824.32 906.24 824.32c35.64032 0 88.28416 9.86112 116.33152-17.37728 24.18176-23.48544 15.19104-60.22656 15.2832-90.14272 0.2304-76.76416 1.50528-153.5744 1.50528-230.4 16.82432 16.82432 34.47296 40.67328 56.31488 50.97984 10.37824 4.89472 27.05408 5.64224 32.47616-6.91712 5.30432-12.29824-5.8368-24.46336-13.29664-32.8192-20.6848-23.168-43.17696-44.672-64.36352-67.36384-55.61856-59.56096-113.1008-118.41536-166.83008-179.59936-32.05632-36.5056-68.096-82.58048-120.7808-86.33856-39.97184-2.85184-70.58432 24.3712-97.28 50.71872-48.91648 48.27136-94.73024 100.08064-142.10048 149.92384-35.2256 37.0688-72.66816 72.41216-105.90208 111.17568-10.752 12.53376-32.08192 27.79648-32.08192 45.98272 0 18.59584 20.6848 21.6832 34.3296 15.23712C444.0576 525.93152 457.50784 499.14368 476.16 481.28z" fill="#FE6869" p-id="23261"></path>
</svg>