<svg t="1781242880372" class="icon" viewBox="0 0 1024 1024" version="1.1" xmlns="http://www.w3.org/2000/svg" p-id="21150" width="81" height="81">
<path d="M925.66 245.48v622.8a83.19 83.19 0 0 1-83.2 83.2h-622.8a126 126 0 0 1-126-126v-580a125.93 125.93 0 0 1 126-126h580a126 126 0 0 1 126 126z" fill="#999999" p-id="21151"></path>
<path d="M730.1 952H221A126 126 0 0 1 95 826V394q12.42-0.5 25-0.5 15.06 0 29.93 0.72C444.31 408.42 684.22 630.47 726 916.83q2.55 17.43 4.1 35.17z" fill="#FFFFFF" opacity=".2" p-id="21152"></path>
<path d="M928 222v622.8a82.87 82.87 0 0 1-6.69 32.74A635.16 635.16 0 0 1 774.7 894.6q-24.06 0-47.69-1.77c-291-21.67-527.21-240-576.13-522.58a638.8 638.8 0 0 1 8.24-257.47A125.48 125.48 0 0 1 222 96h580a126 126 0 0 1 126 126z" fill="#FFFFFF" opacity=".14" p-id="21153"></path>
<path d="M430.91 319h92.47c17.85 0 32.45-13.75 32.45-30.56v-4.59c0-16.8-14.6-30.56-32.45-30.56h-92.47c-17.84 0-32.44 13.76-32.44 30.56v4.59c0 16.77 14.6 30.56 32.44 30.56zM721.37 546.72l-205.56 82.73c-8.16 4.87-8.16 17.84 0 21.09l88.1 35.69L693.63 597l-78.3 100.57L670.79 769c4.9 6.49 18 4.87 19.58-4.86l45.68-204.44c3.26-9.7-6.53-16.22-14.68-12.98z" fill="#FFFFFF" p-id="21154"></path>
<path d="M597.69 705l-28.83-12.23s-24.17-9.77-26.44-11l-40.83-19.37a25.58 25.58 0 0 1-16-22.33c-0.32-6.08 0.28-11.86 2.54-14.55H357.22c-8.92 0-16.22-6.88-16.22-15.28S348.3 595 357.22 595h196.24L678 541.14V337.52c0-24.79-21.54-45.07-47.86-45.07h-44.63c-1.06 29.1-26.65 52.6-57.8 52.6h-98.44c-31.14 0-56.73-23.5-57.8-52.6H326.8c-26.32 0-47.85 20.28-47.85 45.07v349.92c0 24.79 21.53 45.08 47.85 45.08h288.93C607 721.24 599.5 706.81 597.69 705zM357.22 405.52h230.37c8.93 0 16.23 6.88 16.23 15.28s-7.3 15.28-16.23 15.28H357.22c-8.92 0-16.22-6.88-16.22-15.28s7.3-15.28 16.22-15.28z m0 94.74h230.37c8.93 0 16.23 6.87 16.23 15.28s-7.3 15.28-16.23 15.28H357.22c-8.92 0-16.22-6.88-16.22-15.28s7.3-15.28 16.22-15.28z" fill="#FFFFFF" p-id="21155"></path>
</svg>